PathFileType	4	(X/Y/Z)	s11c0001.trc
DataRate	CameraRate	NumFrames	NumMarkers	Units	OrigDataRate	OrigDataStartFrame	OrigNumFrames
200	200	5	49	mm	200	1500	2000
Frame#	Time	racr			lacr			c7			jug			rlel			rdr			llel			ldr			s2			lic			ric			lasi			rasi			rpsi			lpsi			rgt			lgt			rth1			rth2			rth3			rth4			rlfc			rmfc			rsh1			rsh2			rsh3			rsh4			rlmal			rmmal			rcal			rtoe			rmt5			rmt1			lth1			lth2			lth4			lth3			llfc			lmfc			llmal			lmmal			lcal			lmt1			lmt5			lsh1			lsh2			lsh3			lsh4			ltoe			
		X1	Y1	Z1	X2	Y2	Z2	X3	Y3	Z3	X4	Y4	Z4	X5	Y5	Z5	X6	Y6	Z6	X7	Y7	Z7	X8	Y8	Z8	X9	Y9	Z9	X10	Y10	Z10	X11	Y11	Z11	X12	Y12	Z12	X13	Y13	Z13	X14	Y14	Z14	X15	Y15	Z15	X16	Y16	Z16	X17	Y17	Z17	X18	Y18	Z18	X19	Y19	Z19	X20	Y20	Z20	X21	Y21	Z21	X22	Y22	Z22	X23	Y23	Z23	X24	Y24	Z24	X25	Y25	Z25	X26	Y26	Z26	X27	Y27	Z27	X28	Y28	Z28	X29	Y29	Z29	X30	Y30	Z30	X31	Y31	Z31	X32	Y32	Z32	X33	Y33	Z33	X34	Y34	Z34	X35	Y35	Z35	X36	Y36	Z36	X37	Y37	Z37	X38	Y38	Z38	X39	Y39	Z39	X40	Y40	Z40	X41	Y41	Z41	X42	Y42	Z42	X43	Y43	Z43	X44	Y44	Z44	X45	Y45	Z45	X46	Y46	Z46	X47	Y47	Z47	X48	Y48	Z48	X49	Y49	Z49	
1500	7.5000	483.645050	1571.896240	590.899109	452.102966	1596.017334	177.975525	387.253479	1620.082764	384.570038	550.716919	1560.805176	366.334473	484.807190	1313.342529	741.193054	614.999573	1086.611572	886.859009	422.160492	1300.625977	48.815910	544.888550	1061.594727	-129.878738	340.551697	1075.233398	392.925781	508.594788	1162.838379	174.978455	553.098999	1151.990845	566.063538	576.092529	1109.412354	204.208954	608.996338	1112.182861	520.328796	362.273438	1130.125610	447.475311	348.847015	1126.942261	344.839783	506.570374	960.976929	588.236023	442.126709	991.877014	173.766754	516.598572	833.597107	585.303162	536.935852	750.652954	559.841614	513.099915	668.698486	541.532837	570.813843	753.540894	547.379028	508.807190	563.111084	516.346985	503.316711	545.692261	396.629395	463.254425	413.845520	538.735046	478.360168	327.525848	524.836304	448.490540	244.923050	524.663940	504.501862	327.210938	495.734192	431.510956	108.612350	513.412109	463.357483	122.718529	425.918121	386.756226	80.276047	459.302429	667.387451	91.351913	518.977112	590.810608	54.183151	573.912720	609.827759	58.607166	458.461334	471.571594	858.968628	153.721283	491.124756	776.906799	168.492432	527.505554	775.627441	174.171402	465.196747	692.280884	182.800232	460.412659	550.338928	212.849030	474.457703	540.299194	338.985229	405.846191	117.413307	223.486359	436.715515	133.630234	297.662506	369.125854	68.586037	259.907959	592.870972	56.118847	292.008789	569.959534	55.339096	174.973923	423.309753	427.268005	191.990005	441.874054	343.453064	199.114426	416.245697	258.864288	202.748535	473.704010	343.965668	221.467422	660.191650	95.607101	243.993103	
1501	7.5050	483.641479	1571.894409	590.889282	452.093292	1595.997314	177.979507	387.252716	1620.101562	384.571075	550.700562	1560.794800	366.324554	484.813599	1313.327271	741.183777	614.988953	1086.598389	886.857056	422.172058	1300.585938	48.837708	544.911987	1061.536499	-129.815933	340.531738	1075.226074	392.960815	508.597809	1162.822510	174.974915	553.072876	1151.992920	566.075195	576.090820	1109.410767	204.217026	608.994385	1112.189087	520.323242	362.242737	1130.154541	447.519348	348.844330	1126.890991	344.867493	506.550659	960.976379	588.236816	442.100159	991.871765	173.776199	516.606567	833.589844	585.318481	536.921631	750.657410	559.852905	513.098755	668.692993	541.541382	570.812317	753.556641	547.378235	508.772339	563.105957	516.332581	503.313904	545.690613	396.645386	463.260681	413.854736	538.728516	478.314606	327.516235	524.822998	448.481903	244.922409	524.683167	504.494781	327.233276	495.736053	431.513245	108.611038	513.411682	463.357605	122.703003	425.921082	386.755096	80.295380	459.316589	667.379944	91.374054	518.972717	590.818115	54.159370	573.880676	609.839417	58.601768	458.462982	471.565216	858.978943	153.740067	491.112000	776.897095	168.521973	527.477783	775.629639	174.179962	465.182037	692.277893	182.804871	460.414276	550.353943	212.843552	474.438690	540.305359	338.984955	405.846405	117.413994	223.486359	436.720551	133.612152	297.651520	369.124084	68.582993	259.910126	592.875854	56.120407	292.009766	569.961060	55.348434	174.962845	423.299774	427.267090	192.001556	441.872406	343.448547	199.114319	416.242096	258.867218	202.768890	473.690002	343.972412	221.458176	660.196838	95.577881	243.966354	
1502	7.5100	483.629639	1571.896118	590.897278	452.072540	1596.008057	177.960297	387.253479	1620.098267	384.567932	550.692993	1560.787109	366.321289	484.780487	1313.317749	741.158569	614.978821	1086.590088	886.850037	422.183929	1300.554810	48.856346	544.937988	1061.483032	-129.748215	340.522369	1075.169922	392.937195	508.568756	1162.816284	174.965256	553.093750	1152.000122	566.106812	576.055237	1109.417603	204.221680	608.981873	1112.197876	520.341614	362.248444	1130.144287	447.490387	348.805084	1126.888306	344.892487	506.550446	960.984314	588.252808	442.097290	991.866089	173.781189	516.585022	833.594177	585.318481	536.911621	750.658264	559.855835	513.096008	668.696411	541.551758	570.774292	753.553528	547.388611	508.746674	563.098694	516.332153	503.314789	545.691223	396.644318	463.252777	413.849396	538.736267	478.280151	327.503265	524.813599	448.470703	244.917740	524.673950	504.483948	327.196838	495.745850	431.522186	108.609283	513.419617	463.369720	122.694275	425.909546	386.758575	80.275230	459.299438	667.370483	91.358322	518.984497	590.809692	54.179428	573.884766	609.835449	58.606697	458.466217	471.557526	858.971191	153.751434	491.081940	776.915771	168.464233	527.462219	775.639954	174.177002	465.148468	692.274963	182.817886	460.406494	550.336853	212.856720	474.445831	540.291687	338.983643	405.833771	117.425476	223.482239	436.720947	133.612564	297.651062	369.129944	68.569122	259.903320	592.870850	56.118282	292.013702	569.960571	55.348850	174.966599	423.296295	427.273438	192.009735	441.860809	343.427704	199.135254	416.242889	258.861786	202.768311	473.697235	343.962128	221.478592	660.186401	95.582016	243.978714	
1503	7.5150	483.634369	1571.895508	590.872559	452.073090	1595.975952	177.960785	387.234314	1620.103149	384.546509	550.685852	1560.784668	366.313324	484.805206	1313.310425	741.163879	614.960571	1086.591309	886.844849	422.177338	1300.510376	48.905460	544.950623	1061.436035	-129.680801	340.541718	1075.145874	392.922089	508.536865	1162.806152	174.977829	553.051147	1151.985229	566.078308	576.053162	1109.408081	204.227386	608.946228	1112.192017	520.347534	362.219360	1130.144043	447.510406	348.802399	1126.879761	344.887146	506.516022	960.990784	588.264709	442.080292	991.874023	173.780518	516.575439	833.587158	585.311768	536.898865	750.649170	559.860840	513.083496	668.702271	541.565735	570.761536	753.563843	547.407959	508.779053	563.123840	516.352783	503.313354	545.704956	396.642334	463.250427	413.840088	538.735657	478.303894	327.519287	524.816589	448.449524	244.922180	524.685730	504.485291	327.221283	495.751038	431.525604	108.641907	513.420776	463.365936	122.712944	425.914764	386.758423	80.283859	459.294830	667.372498	91.359909	518.978882	590.798096	54.182083	573.907593	609.835266	58.603119	458.474670	471.535522	858.965942	153.737900	491.069946	776.901794	168.496841	527.450562	775.622925	174.184677	465.157074	692.269897	182.829239	460.378326	550.330566	212.865173	474.437683	540.306458	338.983459	405.818787	117.406052	223.473923	436.718567	133.609741	297.659943	369.140350	68.576988	259.912781	592.866455	56.119350	292.008972	569.962952	55.361389	174.960464	423.296051	427.280121	192.015213	441.860382	343.448090	199.139923	416.238129	258.851440	202.772614	473.688873	343.961761	221.464127	660.200439	95.612488	243.992188	
1504	7.5200	483.626190	1571.885864	590.887451	452.071228	1595.963501	177.957397	387.253571	1620.092773	384.568817	550.670166	1560.782227	366.307587	484.790710	1313.310181	741.151123	614.942749	1086.584473	886.841614	422.178986	1300.484375	48.927235	544.966675	1061.390259	-129.631241	340.490875	1075.195923	392.952362	508.537201	1162.815186	174.966522	553.020996	1151.993896	566.099731	576.032104	1109.422852	204.230606	608.935181	1112.187744	520.361145	362.219360	1130.144043	447.510406	348.775421	1126.859863	344.882812	506.514496	960.991272	588.276123	442.061218	991.871643	173.802811	516.545349	833.590820	585.332764	536.891663	750.666138	559.884155	513.074646	668.682251	541.572083	570.753296	753.569641	547.408997	508.748322	563.107239	516.369263	503.283142	545.695496	396.630737	463.247772	413.853790	538.747131	478.346191	327.520782	524.850830	448.472626	244.913467	524.681519	504.495544	327.219818	495.748901	431.498383	108.604118	513.430847	463.373871	122.720482	425.927521	386.754181	80.280975	459.303894	667.380066	91.360756	518.969238	590.768494	54.163853	573.893799	609.858582	58.617580	458.479828	471.524292	858.970276	153.757217	491.069946	776.901794	168.496841	527.438599	775.614136	174.213959	465.127899	692.276184	182.829208	460.369873	550.334045	212.866837	474.454559	540.287598	339.003021	405.820251	117.415985	223.472672	436.717316	133.605148	297.658936	369.124939	68.582527	259.906799	592.865173	56.123440	292.010925	569.947510	55.341251	174.975769	423.288605	427.265045	192.027420	441.842499	343.444397	199.147903	416.232391	258.862640	202.772034	473.674072	343.962921	221.480042	660.193726	95.579613	243.982605	
